<?xml version="1.0" encoding="utf-8"?>
<!-- Generator: Adobe Illustrator 18.1.1, SVG Export Plug-In . SVG Version: 6.00 Build 0)  -->
<svg version="1.1" id="Layer_1" xmlns="http://www.w3.org/2000/svg" xmlns:xlink="http://www.w3.org/1999/xlink" x="0px" y="0px"
	 viewBox="0 0 30 30" enable-background="new 0 0 30 30" xml:space="preserve">
<defs>
	<filter id="Adobe_OpacityMaskFilter" filterUnits="userSpaceOnUse" x="0" y="0" width="30" height="30">
		
			<feColorMatrix  type="matrix" values="-1 0 0 0 1  0 -1 0 0 1  0 0 -1 0 1  0 0 0 1 0" color-interpolation-filters="sRGB" result="source"/>
		<feFlood  style="flood-color:white;flood-opacity:1" result="back"/>
		<feBlend  in="source" in2="back" mode="normal"/>
	</filter>
</defs>
<mask maskUnits="userSpaceOnUse" x="0" y="0" width="30" height="30" id="SVGID_1_">
	<g filter="url(#Adobe_OpacityMaskFilter)">
		<path fill="#FFFFFF" d="M21.4,7.5H8.6C8,7.5,7.5,8,7.5,8.6v12.8c0,0.6,0.5,1.1,1.1,1.1h12.8c0.6,0,1.1-0.5,1.1-1.1V8.6
			C22.5,8,22,7.5,21.4,7.5z M11.9,20.3H9.7v-7.2h2.2V20.3z M10.8,12.1c-0.7,0-1.3-0.6-1.3-1.3c0-0.7,0.6-1.3,1.3-1.3
			c0.7,0,1.3,0.6,1.3,1.3C12.1,11.6,11.5,12.1,10.8,12.1z M20.3,20.3h-2.2v-3.5c0-0.8,0-1.9-1.2-1.9c-1.2,0-1.3,0.9-1.3,1.8v3.5
			h-2.2v-7.2h2.1v1h0c0.3-0.6,1-1.2,2.1-1.2c2.3,0,2.7,1.5,2.7,3.4V20.3z"/>
	</g>
</mask>
<path mask="url(#SVGID_1_)" fill="#101010" d="M15,0L15,0C6.7,0,0,6.7,0,15v0c0,8.3,6.7,15,15,15h0c8.3,0,15-6.7,15-15v0
	C30,6.7,23.3,0,15,0z"/>
</svg>
