<?xml version="1.0" encoding="utf-8"?>
<!-- Generator: Adobe Illustrator 18.1.1, SVG Export Plug-In . SVG Version: 6.00 Build 0)  -->
<svg version="1.1" id="Layer_1" xmlns="http://www.w3.org/2000/svg" xmlns:xlink="http://www.w3.org/1999/xlink" x="0px" y="0px"
	 viewBox="0 0 30 30" enable-background="new 0 0 30 30" xml:space="preserve">
<defs>
	<filter id="Adobe_OpacityMaskFilter" filterUnits="userSpaceOnUse" x="0" y="0" width="30" height="30">
		
			<feColorMatrix  type="matrix" values="-1 0 0 0 1  0 -1 0 0 1  0 0 -1 0 1  0 0 0 1 0" color-interpolation-filters="sRGB" result="source"/>
		<feFlood  style="flood-color:white;flood-opacity:1" result="back"/>
		<feBlend  in="source" in2="back" mode="normal"/>
	</filter>
</defs>
<mask maskUnits="userSpaceOnUse" x="0" y="0" width="30" height="30" id="SVGID_1_">
	<g filter="url(#Adobe_OpacityMaskFilter)">
		<path fill-rule="evenodd" clip-rule="evenodd" fill="#FFFFFF" d="M20.8,13.8h-1.3c0.1,0.4,0.2,0.8,0.2,1.2c0,2.5-2.1,4.6-4.6,4.6
			c-2.5,0-4.6-2.1-4.6-4.6c0-0.4,0.1-0.8,0.2-1.2H9.2v6.3c0,0.3,0.3,0.6,0.6,0.6h10.4c0.3,0,0.6-0.3,0.6-0.6V13.8z M20.8,9.8
			c0-0.3-0.3-0.6-0.6-0.6h-1.7c-0.3,0-0.6,0.3-0.6,0.6v1.7c0,0.3,0.3,0.6,0.6,0.6h1.7c0.3,0,0.6-0.3,0.6-0.6V9.8z M15,12.1
			c-1.6,0-2.9,1.3-2.9,2.9c0,1.6,1.3,2.9,2.9,2.9s2.9-1.3,2.9-2.9C17.9,13.4,16.6,12.1,15,12.1 M20.8,22.5H9.2c-1,0-1.7-0.8-1.7-1.7
			V9.2c0-1,0.8-1.7,1.7-1.7h11.5c1,0,1.7,0.8,1.7,1.7v11.5C22.5,21.7,21.7,22.5,20.8,22.5"/>
	</g>
</mask>
<path mask="url(#SVGID_1_)" fill="#101010" d="M15,0L15,0C6.7,0,0,6.7,0,15v0c0,8.3,6.7,15,15,15h0c8.3,0,15-6.7,15-15v0
	C30,6.7,23.3,0,15,0z"/>
</svg>
