<?xml version="1.0" encoding="utf-8"?>
<!-- Generator: Adobe Illustrator 18.1.1, SVG Export Plug-In . SVG Version: 6.00 Build 0)  -->
<svg version="1.1" id="Layer_1" xmlns="http://www.w3.org/2000/svg" xmlns:xlink="http://www.w3.org/1999/xlink" x="0px" y="0px"
	 viewBox="0 0 30 30" enable-background="new 0 0 30 30" xml:space="preserve">
<path fill="#101010" d="M15,0L15,0C6.7,0,0,6.7,0,15l0,0c0,8.3,6.7,15,15,15l0,0c8.3,0,15-6.7,15-15l0,0C30,6.7,23.3,0,15,0z
	 M10.4,8.5c0-0.6,0.4-0.8,0.9-0.5l11.3,6.5c0.5,0.3,0.5,0.7,0,1L11.2,22c-0.5,0.3-0.9,0-0.9-0.5L10.4,8.5L10.4,8.5z"/>
</svg>
