<?xml version="1.0" encoding="utf-8"?>
<!-- Generator: Adobe Illustrator 18.1.1, SVG Export Plug-In . SVG Version: 6.00 Build 0)  -->
<svg version="1.1" id="Layer_1" xmlns="http://www.w3.org/2000/svg" xmlns:xlink="http://www.w3.org/1999/xlink" x="0px" y="0px"
	 viewBox="0 0 30 30" enable-background="new 0 0 30 30" xml:space="preserve">
<path fill-rule="evenodd" clip-rule="evenodd" fill="#181616" d="M15,0C6.7,0,0,6.9,0,15.4C0,22.2,4.3,27.9,10.3,30
	c0.8,0.1,1-0.3,1-0.7c0-0.4,0-1.3,0-2.6c-4.2,0.9-5.1-2.1-5.1-2.1c-0.7-1.8-1.7-2.2-1.7-2.2c-1.4-1,0.1-0.9,0.1-0.9
	C6.2,21.5,6.9,23,6.9,23c1.3,2.4,3.5,1.7,4.4,1.3c0.1-1,0.5-1.7,1-2.1c-3.3-0.4-6.8-1.7-6.8-7.6c0-1.7,0.6-3.1,1.5-4.1
	c-0.2-0.4-0.7-2,0.1-4.1c0,0,1.3-0.4,4.1,1.6c1.2-0.3,2.5-0.5,3.8-0.5c1.3,0,2.6,0.2,3.8,0.5c2.9-2,4.1-1.6,4.1-1.6
	c0.8,2.1,0.3,3.7,0.1,4.1c1,1.1,1.5,2.4,1.5,4.1c0,5.9-3.5,7.2-6.8,7.6c0.5,0.5,1,1.4,1,2.8c0,2.1,0,3.7,0,4.2c0,0.4,0.3,0.9,1,0.7
	c6-2,10.2-7.8,10.2-14.6C30,6.9,23.3,0,15,0z"/>
</svg>
