<?xml version="1.0" encoding="utf-8"?>
<!-- Generator: Adobe Illustrator 18.1.1, SVG Export Plug-In . SVG Version: 6.00 Build 0)  -->
<svg version="1.1" id="Layer_1" xmlns="http://www.w3.org/2000/svg" xmlns:xlink="http://www.w3.org/1999/xlink" x="0px" y="0px"
	 viewBox="0 0 30 30" enable-background="new 0 0 30 30" xml:space="preserve">
<defs>
	<filter id="Adobe_OpacityMaskFilter" filterUnits="userSpaceOnUse" x="0" y="0" width="30" height="30">
		
			<feColorMatrix  type="matrix" values="-1 0 0 0 1  0 -1 0 0 1  0 0 -1 0 1  0 0 0 1 0" color-interpolation-filters="sRGB" result="source"/>
		<feFlood  style="flood-color:white;flood-opacity:1" result="back"/>
		<feBlend  in="source" in2="back" mode="normal"/>
	</filter>
</defs>
<mask maskUnits="userSpaceOnUse" x="0" y="0" width="30" height="30" id="SVGID_1_">
	<g filter="url(#Adobe_OpacityMaskFilter)">
		<g>
			<path fill="#FFFFFF" d="M17.6,13.6l-0.7,0.7c-1,1-1.7,1.6-1.7,2.5c0,0.7,0.4,1,0.9,1.1v0.5c-0.2,0.1-0.8,0.4-1.6,0.4
				c-1.2,0-2.3-0.6-2.3-2.2c0-1.3,0.8-2.1,2.2-3.6l1-1.1c1.3-1.4,1.8-2.3,1.8-3.9c0-1.5-0.8-2.3-1.8-2.3c-0.8,0-1.3,0.3-1.4,0.5
				l-1,2.8c-0.1,0.3-0.6,0.6-1.1,0.6c-0.6,0-1.3-0.3-1.3-1.3c0-1.7,2.3-3.3,4.9-3.3C18,5,20,6.1,20,8.9C20,11.1,18.9,12.3,17.6,13.6
				z M14.3,25c-1,0-1.9-0.9-1.9-1.9c0-1.1,0.9-1.9,1.9-1.9c1.1,0,1.9,0.9,1.9,1.9C16.3,24.1,15.4,25,14.3,25z"/>
		</g>
	</g>
</mask>
<path mask="url(#SVGID_1_)" fill="#101010" d="M15,0L15,0C6.7,0,0,6.7,0,15v0c0,8.3,6.7,15,15,15h0c8.3,0,15-6.7,15-15v0
	C30,6.7,23.3,0,15,0z"/>
</svg>
